<svg xmlns="http://www.w3.org/2000/svg" width="200" height="40" viewBox="0 0 200 40">
    <g fill="#2A2E36" fill-rule="evenodd">
        <path d="M0 33.846l2.949-3.657c2.648 2.845 6.98 5.515 12.637 5.515 7.16 0 9.447-3.716 9.447-6.676 0-9.986-23.769-4.47-23.769-18.288C1.264 4.354 7.161 0 15.044 0c6.138 0 10.891 1.974 14.261 5.4l-3.008 3.54c-3.008-3.193-7.221-4.644-11.614-4.644-4.814 0-8.244 2.497-8.244 6.154 0 8.708 23.77 3.715 23.77 18.171C30.208 34.253 26.236 40 15.404 40 8.425 40 3.31 37.446 0 33.846M125 40V0h5.06v35.563h18.898V40zM75.517 0L56.25 39.956h38.533L75.517 0zm0 10.879l11.769 24.407H63.747l11.77-24.407zM182.388 40V4.438h-12.596V0H200v4.438h-12.657V40z"/>
    </g>
</svg>
